<svg width="57" height="57" viewBox="0 0 57 57" fill="none" xmlns="http://www.w3.org/2000/svg">
<path d="M28.23 48.96C16.8 48.96 7.5 39.66 7.5 28.23C7.5 16.8 16.79 7.48999 28.23 7.48999C39.67 7.48999 48.96 16.79 48.96 28.22C48.96 39.65 39.66 48.95 28.23 48.95V48.96ZM28.23 8.69999C17.46 8.69999 8.7 17.46 8.7 28.23C8.7 39 17.46 47.76 28.23 47.76C39 47.76 47.76 39 47.76 28.23C47.76 17.46 39 8.69999 28.23 8.69999Z" fill="#374244"/>
<path d="M30.8 27.0199C30.7 27.0199 30.59 26.9899 30.49 26.9399C30.21 26.7699 30.11 26.3999 30.28 26.1199C36.07 16.4399 30.16 12.4799 29.9 12.3199C27.58 10.8599 25.39 11.5799 23.96 12.4399C23.82 12.5299 23.73 12.6699 23.72 12.8299C23.72 12.9199 23.72 13.0999 23.89 13.2399C30.55 18.9099 29.23 24.7999 29.17 25.0499C29.09 25.3699 28.77 25.5699 28.45 25.4899C28.13 25.4099 27.93 25.0899 28.01 24.7699C28.07 24.5299 29.18 19.3099 23.12 14.1499C22.7 13.7999 22.49 13.2799 22.54 12.7299C22.58 12.1899 22.89 11.6899 23.36 11.4099C24.76 10.5599 27.57 9.40993 30.56 11.2999C30.64 11.3499 32.43 12.4999 33.4 15.0199C34.28 17.2999 34.64 21.1799 31.32 26.7299C31.21 26.9199 31.01 27.0199 30.8 27.0199Z" fill="#374244"/>
<path d="M31.81 30.21C31.56 30.21 31.3 30.21 31.04 30.2C30.71 30.2 30.45 29.91 30.46 29.58C30.46 29.25 30.76 28.97 31.08 29C42.36 29.31 42.93 22.24 42.95 21.94C43.1 19.2 41.4 17.64 39.95 16.81C39.81 16.73 39.64 16.72 39.49 16.79C39.41 16.83 39.26 16.92 39.22 17.13C37.51 25.71 31.73 27.43 31.48 27.5C31.16 27.59 30.83 27.4 30.74 27.08C30.65 26.76 30.84 26.43 31.15 26.34C31.37 26.28 36.48 24.71 38.04 16.89C38.15 16.35 38.49 15.92 38.99 15.69C39.49 15.46 40.07 15.49 40.54 15.76C41.97 16.57 44.33 18.46 44.15 22C44.15 22.09 44.01 24.22 42.29 26.3C40.79 28.1 37.77 30.21 31.83 30.21H31.81Z" fill="#374244"/>
<path d="M38.32 39.7C37.84 39.7 37.31 39.66 36.75 39.56C34.35 39.12 30.85 37.38 27.87 31.65C27.72 31.36 27.83 30.99 28.13 30.84C28.42 30.69 28.79 30.8 28.94 31.1C34.15 41.1 40.62 38.15 40.89 38.02C43.36 36.81 43.89 34.57 43.9 32.9C43.9 32.73 43.83 32.58 43.69 32.49C43.62 32.43 43.46 32.35 43.26 32.42C34.94 35.12 30.62 30.9 30.44 30.72C30.21 30.48 30.21 30.1 30.44 29.87C30.67 29.64 31.05 29.64 31.29 29.87C31.45 30.03 35.3 33.73 42.89 31.28C43.41 31.11 43.96 31.2 44.4 31.53C44.84 31.85 45.1 32.37 45.1 32.92C45.09 34.56 44.59 37.55 41.41 39.11C41.35 39.14 40.13 39.72 38.32 39.72V39.7Z" fill="#374244"/>
<path d="M28.8 46.21C27.67 46.21 26.43 45.91 25.17 45.04C25.09 44.99 23.36 43.76 22.49 41.2C21.71 38.88 21.52 34.99 25.07 29.59C25.25 29.31 25.62 29.24 25.9 29.42C26.18 29.6 26.25 29.97 26.07 30.25C19.87 39.67 25.61 43.88 25.85 44.06C28.11 45.62 30.33 45 31.79 44.19C31.93 44.11 32.03 43.97 32.05 43.81C32.06 43.72 32.05 43.54 31.9 43.4C25.49 37.45 27.06 31.62 27.13 31.38C27.22 31.06 27.55 30.87 27.87 30.97C28.19 31.06 28.37 31.39 28.28 31.71C28.22 31.93 26.87 37.1 32.71 42.53C33.11 42.9 33.3 43.43 33.23 43.97C33.16 44.51 32.84 44.99 32.36 45.26C31.54 45.71 30.27 46.23 28.79 46.23L28.8 46.21Z" fill="#374244"/>
<path d="M16.3 40.4C15.98 40.4 15.67 40.31 15.39 40.14C14 39.27 11.72 37.28 12.06 33.76C12.06 33.67 12.3 31.55 14.11 29.55C15.75 27.74 19.06 25.68 25.51 26.14C25.84 26.16 26.09 26.45 26.07 26.78C26.05 27.11 25.76 27.36 25.43 27.34C14.18 26.51 13.3 33.58 13.27 33.88C13.01 36.61 14.64 38.24 16.05 39.13C16.19 39.22 16.36 39.23 16.51 39.17C16.6 39.13 16.75 39.05 16.8 38.84C18.87 30.34 24.73 28.87 24.97 28.81C25.3 28.73 25.62 28.93 25.69 29.26C25.77 29.58 25.57 29.9 25.24 29.98C25.01 30.04 19.84 31.38 17.96 39.12C17.83 39.65 17.47 40.07 16.96 40.28C16.75 40.36 16.54 40.4 16.32 40.4H16.3Z" fill="#374244"/>
<path d="M25.68 26.65C25.52 26.65 25.36 26.58 25.24 26.46C25.08 26.29 21.39 22.43 13.71 24.56C13.18 24.71 12.64 24.59 12.21 24.25C11.78 23.91 11.55 23.38 11.57 22.83C11.65 21.19 12.28 18.23 15.52 16.81C15.6 16.77 17.56 15.94 20.2 16.54C22.58 17.09 26 18.97 28.73 24.83C28.87 25.13 28.74 25.49 28.44 25.63C28.14 25.77 27.78 25.64 27.64 25.34C22.87 15.12 16.28 17.79 16 17.91C13.48 19.01 12.86 21.23 12.77 22.9C12.77 23.07 12.83 23.22 12.96 23.32C13.03 23.38 13.18 23.47 13.39 23.41C21.82 21.07 25.96 25.47 26.13 25.66C26.35 25.9 26.34 26.28 26.09 26.51C25.98 26.61 25.83 26.67 25.69 26.67L25.68 26.65Z" fill="#374244"/>
<path d="M28.23 31.97C26.16 31.97 24.48 30.29 24.48 28.22C24.48 26.15 26.16 24.47 28.23 24.47C30.3 24.47 31.98 26.15 31.98 28.22C31.98 30.29 30.3 31.97 28.23 31.97ZM28.23 25.68C26.83 25.68 25.68 26.82 25.68 28.23C25.68 29.64 26.82 30.78 28.23 30.78C29.64 30.78 30.78 29.64 30.78 28.23C30.78 26.82 29.64 25.68 28.23 25.68Z" fill="#4A58B5"/>
<path d="M48.33 52.0599H8.12001C6.06001 52.0599 4.39001 50.3899 4.39001 48.3299V8.11989C4.39001 6.05989 6.06001 4.38989 8.12001 4.38989H48.33C50.39 4.38989 52.06 6.05989 52.06 8.11989V48.3299C52.06 50.3899 50.39 52.0599 48.33 52.0599ZM8.12001 5.58989C6.72001 5.58989 5.59001 6.72989 5.59001 8.11989V48.3299C5.59001 49.7299 6.73001 50.8599 8.12001 50.8599H48.33C49.73 50.8599 50.86 49.7199 50.86 48.3299V8.11989C50.86 6.71989 49.72 5.58989 48.33 5.58989H8.12001Z" fill="#374244"/>
</svg>
